<?xml version="1.0" encoding="utf-8"?>
<!-- Generator: Adobe Illustrator 25.4.2, SVG Export Plug-In . SVG Version: 6.00 Build 0)  -->
<svg version="1.1" id="Layer_1" xmlns="http://www.w3.org/2000/svg" xmlns:xlink="http://www.w3.org/1999/xlink" x="0px" y="0px"
	 viewBox="0 0 700 700" style="enable-background:new 0 0 700 700;" xml:space="preserve">
<style type="text/css">
	.st0{fill:#FFFFFF;}
	.st1{fill:#010101;}
	.st2{fill:#FFFFFF;stroke:#FFFFFF;stroke-width:7;stroke-linecap:round;stroke-linejoin:round;stroke-miterlimit:22.4;}
	.st3{fill:none;stroke:#FFFFFF;stroke-width:7;stroke-miterlimit:56;}
</style>
<path class="st0" d="M608.2,536.7c21.8,22.4,21.8,57.7-0.6,80.1c-22.4,22.4-57.7,21.8-80.1-0.6c-1.1-1.1-2.8-2.8-3.9-3.9l-238-286.7
	c1.7,1.1,3.4,1.7,5.6,1.7c6.7,3.4,29.7-6.7,41.4-19c11.8-12.3,25.8-28,19.6-34.2v-0.6L608.2,536.7z"/>
<path class="st0" d="M352.2,274.1c6.2,6.2-7.3,21.8-19.6,34.2c-12.3,12.3-34.7,22.4-41.4,19c-2.2,0-3.9-0.6-5.6-1.7l20.7-15.7
	c1.7-0.6,3.4-1.1,5-1.7c9.5-3.4,16.8-10.1,21.8-18.5L352.2,274.1z"/>
<path class="st0" d="M333.8,287c-2.2-3.9-4.5-7.8-7.3-11.8c5-2.2,10.6-2.8,16.2-2.8c3.4-0.6,6.7,0.6,9.5,2.2l-19,14
	C333.2,288.1,333.8,287.5,333.8,287L333.8,287z"/>
<path class="st1" d="M311.4,307.7c-1.7,0.6-3.4,1.1-5,1.7l3.4-2.8L311.4,307.7z"/>
<path class="st0" d="M310.2,306.6l-3.4,2.8l-21.3,16.2c-10.6-7.3,13.4-30.8,13.4-30.8l1.7,2.2l5,6.2l1.1,1.1
	C308,304.9,309.1,306,310.2,306.6L310.2,306.6z"/>
<path class="st0" d="M175.3,324.5l-30.8,5.6c-7.3,1.1-12.3,7.8-11.2,15.1c1.1,6.7,6.7,11.2,12.9,11.2s18.5-1.7,31.9-3.9v0.6v0.6
	c-1.1,5.6-3.9,10.6-7.3,15.1c-12.9,16.8-37,19.6-53.8,6.7s-19-37-6.2-53.8C137.8,288.1,175.8,323.9,175.3,324.5L175.3,324.5z"/>
<path class="st0" d="M148.4,112c12.2,1.7,23.2,8.3,30.7,18.7c1,1.7,1.6,2.8,2.6,4.4c3.7,6.1,5.3,12.7,5.3,19.9v165.4v0.6
	c-3.7-7.2-8.5-13.2-14.2-17.6c-23.8-19.3-58.7-15.5-77.2,9.9c-6.3,8.9-10.6,19.3-11.6,30.3v-16.5l11.6-170.9
	c-2.6-18.7,8.5-35.8,24.8-40.3l19.5-2.8l7.4-1.1L148.4,112z"/>
<path class="st2" d="M352.8,273.5l254.8,263.2c21.8,22.4,21.8,57.7-0.6,80.1c-22.4,22.4-57.7,21.8-80.1-0.6
	c-1.1-1.1-2.8-2.8-3.9-3.9L285.6,325.6"/>
<path class="st3" d="M83.4,343v12.9"/>
<path class="st3" d="M192.6,321.7v-1.1V320V152c0-7.3-1.7-14-5-20.2c-0.6-1.7-1.7-2.8-2.8-4.5c-7.8-10.6-19.6-17.4-32.5-19h-1.1
	l-7.8,1.1l-20.7,2.8c-17.4,4.5-29.1,21.3-27.4,39.8L83.4,326.2V343"/>
<path class="st3" d="M206.1,131.3H205c-5.6,0-11.2-0.6-17.4,0.6H187"/>
<path class="st3" d="M205.5,130.2v1.1v7.3v168c0,4.5,0.6,8.4,1.1,12.9l-1.1,0.6l-12.3,2.2l-17.9,2.8l-30.8,5
	c-7.3,1.1-12.3,7.8-11.2,15.1c1.1,6.7,6.7,11.2,12.9,11.2s18.5-1.7,31.9-3.9c7.3-1.1,14.6-2.2,21.3-3.4c13.4-2.2,24.1-3.9,24.1-3.9
	l-0.6,0.6"/>
<path class="st3" d="M193.2,321.7l-0.6-1.1c-3.9-7.3-9-13.4-15.1-17.9c-25.2-19.6-62.2-15.1-81.8,10.1c-6.7,9-11.2,19.6-12.3,30.2
	c-0.6,4.5-0.6,8.4,0,12.9s1.7,9,3.4,12.9c11.2,30.2,44.8,45.4,75,34.2c10.1-3.9,19-10.1,25.2-18.5c7.8-10.1,12.3-22.4,12.3-35.3
	v-0.6"/>
<path class="st3" d="M178.6,353v0.6c-1.1,5.6-3.9,10.6-7.3,15.1c-12.9,16.8-37,19.6-53.8,6.7s-19.6-37-6.7-53.8
	c26.3-33.6,64.4,2.2,63.8,2.8l-0.6-0.6"/>
<path class="st3" d="M241.4,220.3v86.2c0,20.7-7.8,38.1-17.4,38.6"/>
<path class="st3" d="M147.8,108.9l4.5-0.6c22.4-2.8,45.9-5.6,67.8-8.4c3.4,0.6,7.3,1.7,10.1,3.4c6.2,6.2,10.6,19.6,10.6,35.3v58.2"
	/>
<path class="st3" d="M238.6,196.2c-3.9,0-8.4,1.7-11.2,4.5"/>
<path class="st3" d="M245.3,197.4c-1.1-0.6-2.8-1.1-3.9-1.1h-2.8"/>
<path class="st3" d="M247.5,198.5c-0.6-0.6-1.1-0.6-1.7-0.6"/>
<path class="st3" d="M240.8,219.8c-1.7,0.6-17.9,8.4-20.7,5.6c-5-5-2.8-14.6,3.9-21.8l2.8-2.8c3.4-2.8,7.3-3.9,11.2-4.5"/>
<path class="st3" d="M240.2,219.2l0.6,0.6v0.6l58.2,73.9l1.7,2.2l5,6.2l1.1,1.1c1.1,1.1,1.7,1.7,2.8,2.2l1.7,1.1"/>
<path class="st3" d="M333.8,287c-2.2-3.9-4.5-7.8-7.3-11.8c-9.5-13.4-20.2-25.8-31.9-37c-14-14.6-29.7-27.4-46.5-38.6l-0.6-0.6
	l-1.7-1.1l-0.6-0.6c-1.1-0.6-2.8-1.1-3.9-1.1h-2.8H238"/>
<path class="st3" d="M306.3,309.4c1.7-0.6,3.4-1.1,5-1.7c9.5-3.4,16.8-10.1,21.8-18.5c0.6-0.6,0.6-1.1,0.6-2.2
	c0.6-1.7,1.1-3.9,1.1-5.6"/>
</svg>
