<?xml version="1.0" encoding="utf-8"?>
<!-- Generator: Adobe Illustrator 25.4.2, SVG Export Plug-In . SVG Version: 6.00 Build 0)  -->
<svg version="1.1" id="Layer_1" xmlns="http://www.w3.org/2000/svg" xmlns:xlink="http://www.w3.org/1999/xlink" x="0px" y="0px"
	 viewBox="0 0 700 700" style="enable-background:new 0 0 700 700;" xml:space="preserve">
<style type="text/css">
	.st0{fill:#FFFFFF;}
	.st1{fill:none;stroke:#FFFFFF;stroke-width:6.9;stroke-miterlimit:61.002;}
</style>
<path class="st0" d="M577.2,282.9H500c0,0-81-130.7-68-183c13.1-52.3-67.1,116.4-35.4,178.7l-36.6,4.1c0,0-89.6-83.1-100.4-184.6
	c0,0-29.2,75.9,53.5,183c-8.9,1.9-17.9,2.4-27,1.6c-8.8-0.5-15.6-1.6-15.6-1.6S186,235.8,176.3,44.7h120.3c0,0,11.5,41.8,41.2,60.5
	c5.5-28.4,38.4-60,38.4-60h10.4H485h4.7C489.7,45.2,477.7,199.5,577.2,282.9L577.2,282.9z"/>
<path class="st1" d="M292.5,45h94H485"/>
<path class="st1" d="M489.8,45c17.7,0,32.1,0,41.7-0.5c-19.7,143.9,100,246.9,100,246.9s-20.9,0.8-53.9,1.6
	c-53.6,1.5-139,3.1-217.3,2.1c-26.2,0-51.5-0.9-74.7-2c-11-0.4-21.5-1-31.3-1.8C124.1,224.8,139.2,44.5,139.2,44.5H280"/>
<path class="st1" d="M360.3,282.9l36.6-4.1c-31.7-62.3,48.4-230.8,35.4-178.7c-13.1,52.1,68,183,68,183h77
	c-99.6-83.3-87.5-237.9-87.5-237.9H376.2c0,0-32.9,31.7-38.2,60.5c-29.8-18.3-41.2-60.5-41.2-60.5h-16.5c-27.8,0-83-0.4-103.7-0.4
	c9.7,191.1,94.1,236.3,94.1,236.3s6.8,1,15.6,1.6c9,0.8,18.1,0.3,27-1.6c-82.9-106.5-53.5-182.8-53.5-182.8
	C270.5,199.7,360.3,282.9,360.3,282.9L360.3,282.9z"/>
<path class="st0" d="M590.2,325.2l-175,168.5h-85.6l-9.3-57.6l-70.8,57.6l-147.1-4.6l173.2-169.4l46.5,4.3L198.3,447.3l138.4-100.2
	l31.9-23.1h29.8L390,457.5l92.2-108.4l21.4-25.1L590.2,325.2z"/>
<path class="st1" d="M322.2,324L198.3,447.3l138.4-100.2l31.9-23.1h29.8L390,457.5l92.2-108.4l21.4-25.1l86.5,1.2l-175,168.5h-85.6
	l-9.3-57.6l-70.8,57.6l-147.1-4.6l173.2-169.4L322.2,324z"/>
<path class="st1" d="M102.5,489.1l-34.7,33.8C127.6,519.5,102.5,489.1,102.5,489.1z"/>
<path class="st1" d="M67.9,522.9v78.5h379.4v-65.7c-16.9-7.9-28.8-23.6-32-42"/>
<path class="st1" d="M249.6,493.7c0,0,36.6,64.7,80,0"/>
<path class="st1" d="M447.2,535.7c0,0,108.1-105.1,178.5-179.8c-6.5-1.4-12.8-3.7-18.7-6.8c-18.3-10.2-16.7-23.9-16.7-23.9"/>
<path class="st1" d="M447.2,601.5l187.3-167.7v-84.7h-27.6"/>
<path class="st1" d="M482.4,349.1h-73.9"/>
<path class="st1" d="M322.2,324c0,0,4,20.1,14.6,23.1"/>
<path class="st1" d="M398.6,324c0.2,9.3,3.8,18.2,10.1,25.1c7.1,6.5,16.7,9.5,26.3,8.3"/>
</svg>
